<svg xmlns="http://www.w3.org/2000/svg" width="32" height="32" id="box"><path fill="white" fill-rule="evenodd" d="M10.952 1022.922a.5.5 0 0 0-.162.041l-10.488 4.555a.5.5 0 0 0-.096.863l4.5 3.272-4.5 3.271a.5.5 0 0 0 .096.864l4.699 2.04v7.329a.5.5 0 0 0 .012.115.5.5 0 0 0 .298.574l10.483 4.475a.5.5 0 0 0 .062.019.5.5 0 0 0 .014 0 .5.5 0 0 0 .02.01.5.5 0 0 0 .039.01.5.5 0 0 0 .01 0 .5.5 0 0 0 .003 0 .5.5 0 0 0 .098 0 .5.5 0 0 0 .043-.01.5.5 0 0 0 .008 0 .5.5 0 0 0 .011 0 .5.5 0 0 0 .038-.01.5.5 0 0 0 .046-.016.5.5 0 0 0 .02-.01l10.484-4.475a.5.5 0 0 0 .3-.576.5.5 0 0 0 .01-.113v-7.371l4.7-2.041a.5.5 0 0 0 .096-.862l-4.674-3.398a.5.5 0 0 0-.004-.01.5.5 0 0 0-.004-.01l4.219-3.067a.5.5 0 0 0-.096-.863l-10.486-4.554a.5.5 0 0 0-.195-.043.5.5 0 0 0-.3.096l-4.474 3.253-4.5-3.271a.5.5 0 0 0-.33-.096zm-.025 1.075 4.084 2.97-9.479 4.053-4.03-2.93 9.425-4.093zm9.687.016 9.424 4.093-3.846 2.795-9.478-4.053 3.9-2.835zm-4.613 3.619 9.379 4.011-9.38 4.012-3.019-1.29-3.877-1.657-2.488-1.065 9.385-4.011zm10.484 4.629 4.014 2.918-9.424 4.093-4.07-2.959 9.48-4.052zm-20.931.016 3.158 1.35 3.877 1.657 2.441 1.045-4.103 2.985-9.424-4.094 4.05-2.943zm10.947 4.906 4.219 3.066a.5.5 0 0 0 .492.055l4.789-2.08v6.832l-9.5 4.055v-11.928zm-1 .039v11.889l-9.5-4.055v-6.791l4.789 2.08a.5.5 0 0 0 .492-.055l4.219-3.068zm4.974 5.539a.5.5 0 0 0-.005 0 .5.5 0 0 0-.178.043l-2.66 1.137a.5.5 0 1 0 .394.92l2.658-1.137a.5.5 0 0 0-.209-.965zm2.659.682a.5.5 0 0 0-.006 0 .5.5 0 0 0-.178.043l-2.658 1.136-2.66 1.137a.5.5 0 1 0 .394.918l2.658-1.135 2.659-1.137a.5.5 0 0 0-.21-.964z" color="#000" font-family="sans-serif" font-weight="400" overflow="visible" transform="translate(0 -1020.362)" style="line-height:normal;text-indent:0;text-align:start;text-decoration-line:none;text-decoration-style:solid;text-decoration-color:#000;text-transform:none;block-progression:tb;white-space:normal;isolation:auto;mix-blend-mode:normal;solid-color:#000;solid-opacity:1"></path></svg>