<svg xmlns="http://www.w3.org/2000/svg" enable-background="new 0 0 64 64" viewBox="0 0 64 64" id="wishlist"><path fill="#231f20" d="M48,5H16c-1.7,0-3,1.4-3,3v39c0,1.1,0.6,2.1,1.5,2.6l16,8.9c0.5,0.3,1,0.4,1.5,0.4s1-0.1,1.5-0.4l16-8.9
			c1-0.5,1.5-1.5,1.5-2.6V8C51,6.4,49.7,5,48,5z M49,47.1c0,0.4-0.2,0.7-0.5,0.9h0l-16,8.9c-0.3,0.2-0.7,0.2-1,0l-16-8.9
			c-0.3-0.2-0.5-0.5-0.5-0.9V8c0-0.6,0.4-1,1-1h32c0.6,0,1,0.5,1,1V47.1z"></path><path fill="#231f20" d="M36.8 11.2c-1.9 0-3.7.8-4.8 2.2-1.2-1.4-2.9-2.2-4.8-2.2-3.4 0-6.2 2.7-6.2 5.9 0 3.6 4.9 8.7 9 12.3.6.5 1.3.7 2 .7.7 0 1.4-.3 2-.7 3.4-3 9-8.5 9-12.3C43 13.8 40.2 11.2 36.8 11.2zM32.7 27.9c-.4.3-1 .3-1.3 0-5.2-4.6-8.3-8.6-8.3-10.8 0-2.2 1.9-3.9 4.2-3.9 1.7 0 3.3 1 3.9 2.5.2.4.5.6.9.6s.8-.2.9-.6c.6-1.5 2.2-2.5 3.9-2.5 2.3 0 4.2 1.8 4.2 3.9C41 19.3 37.9 23.3 32.7 27.9zM39 32H25c-1.7 0-3 1.3-3 3s1.3 3 3 3h14c1.7 0 3-1.3 3-3S40.7 32 39 32zM39 36H25c-.6 0-1-.4-1-1s.4-1 1-1h14c.6 0 1 .4 1 1S39.6 36 39 36zM39 40H25c-1.7 0-3 1.3-3 3s1.3 3 3 3h14c1.7 0 3-1.3 3-3S40.7 40 39 40zM39 44H25c-.6 0-1-.4-1-1s.4-1 1-1h14c.6 0 1 .4 1 1S39.6 44 39 44z"></path></svg>